<svg transform="scale(1)" version="1.1" id="FkWtWFoev2" xmlns="http://www.w3.org/2000/svg" xmlns:xlink="http://www.w3.org/1999/xlink" x="0px" y="0px" viewBox="0 0 500 500" xml:space="preserve" class="pbimage_pbimage__wrapper__image__0LEis false"><title>Investing 6</title><style type="text/css"> .st0{fill:#000005;} .st1{fill:#FFFFFF;} .st2{fill:#59BE4C;}
 .st2{fill:#4c53be;}
 .st1{fill:#FFFFFF;}
 .st0{fill:#000005;}</style><g id="device"><g id="device-2"><path class="st0" d="M48.2,102.3c0,0-4.6,20.6-4.6,26.5c0,5.9,26.2,187.2,38.1,191.6l0,0L48.2,102.3"></path><path class="st0" d="M46.5,100.6c-0.8,3.5-1.5,7-2.2,10.5c-1,5.1-2.2,10.2-2.4,15.4c0.1,2.8,0.3,5.5,0.9,8.2
			c0.8,6,1.7,12.1,2.5,18.1c1.2,8.5,2.5,16.9,3.8,25.4c1.5,9.9,3.1,19.9,4.8,29.8c1.7,10.4,3.5,20.8,5.4,31.2
			c1.8,9.9,3.7,19.9,5.7,29.8c1.7,8.4,3.5,16.8,5.6,25.1c1.4,6,3.1,11.9,5.2,17.7c1.4,3.6,3.3,8.6,7.1,10.4c1.7,0.8,3.6,1.4,5.4,2
			l-2.4-3.6l-5.3-2l2.9,3.5l-0.9-5.9l-2.4-15.8l-3.6-23.5l-4.4-28.6L67.3,217l-4.9-31.7l-4.5-29.6l-3.8-24.9l-2.8-17.9
			c-0.4-2.8-0.9-5.7-1.3-8.5c0-0.1,0-0.2,0-0.4c-0.3-1-0.9-1.9-1.7-2.6C48.1,101.3,46.4,100,46.5,100.6l0.9,5.9l2.4,15.8l3.6,23.5
			l4.4,28.6l4.8,31.3l4.9,31.7L72,267l3.8,24.9l2.8,17.9c0.4,2.8,0.9,5.7,1.3,8.5l0.1,0.4c0.4,1.5,1.5,2.8,2.9,3.5l5.3,2
			c1,0.4,0.3-0.9,0.1-1.3c-0.6-1-1.4-1.8-2.5-2.4c-1.8-0.7-3.6-1.5-5.4-2c-0.1,0,0.4,0.3,0.1,0c0,0,0.5,0.4,0.3,0.2s0.3,0.3,0.3,0.2
			c-0.4-0.4,0.5,0.6,0.2,0.2s0.5,0.6,0.1,0.1s0.3,0.6,0.1,0.1c-0.1-0.1-0.2-0.3-0.3-0.5c-0.3-0.4,0.2,0.4,0,0
			c-0.1-0.2-0.2-0.4-0.3-0.5c-0.2-0.4-0.4-0.8-0.6-1.2c-0.1-0.2-0.2-0.4-0.3-0.6l-0.2-0.4c-2-5.3-3.7-10.7-5-16.3
			c-2-7.9-3.8-15.9-5.5-23.8c-2-9.6-3.8-19.1-5.6-28.8c-1.9-10.2-3.7-20.5-5.4-30.7c-1.7-9.9-3.3-19.8-4.8-29.7
			c-1.4-8.7-2.7-17.4-4-26.1c-1-6.5-1.9-13-2.8-19.5c-0.5-3.3-1-6.7-1.2-10c-0.2-2.9,0.5-5.8,0.9-8.7c0.9-5.2,1.9-10.4,3-15.6
			c0.2-1,0.4-1.9,0.6-2.9c0.2-0.8-1.2-2.1-1.7-2.6C48,101.2,46.7,99.9,46.5,100.6L46.5,100.6z"></path><path class="st0" d="M91.6,341.2c1.5,6.6,5.4,12.4,10.8,16.4c26.7,19.6,107.7,79,112.4,80.4c5.7,1.6,221.3-92.3,219.7-111.9
			L90.7,337.5L91.6,341.2z"></path><path class="st0" d="M89.3,341.3c1.5,6.5,5.1,12.3,10.1,16.7c2.7,2.3,5.7,4.3,8.6,6.4l20.4,15c16.1,11.8,32.3,23.6,48.6,35.3
			c11.3,8.1,22.5,16.6,34.3,23.9c1.9,1.2,3.4,2.1,5.7,1.6c2.4-0.6,4.7-1.4,7-2.3c9.6-3.5,19-7.5,28.4-11.5
			c13.9-5.9,27.7-11.9,41.4-18.1c15.6-7.1,31.2-14.3,46.7-21.7c14.9-7.2,29.7-14.5,44.3-22.3c11.6-6.2,23.2-12.5,34.2-19.8
			c3.8-2.4,7.5-5.1,10.9-8c2.3-2,4.8-4.2,6.1-7c0.5-1,0.7-2.2,0.7-3.4c-0.2-1.3-1.3-2.3-2.6-2.4L425,324l-25,0.8l-37.1,1.2l-45,1.5
			l-49.6,1.6l-49.7,1.6l-46.7,1.5l-39.2,1.3l-28.4,0.9c-4.4,0.1-8.9,0.2-13.4,0.5h-0.6c-1.1,0-2.1,1-2,2.1c0,0.1,0,0.2,0,0.3
			L89.3,341.3c0.2,1.3,1.3,2.3,2.6,2.3c1.1-0.1,2-1,2-2.2c0-0.1,0-0.2,0-0.3l-0.9-3.7l-1.9,2.5l9.2-0.3l24.9-0.8l37.1-1.2l45-1.5
			l49.6-1.6l49.7-1.6l46.7-1.5l39.2-1.3l28.4-1c4.4-0.1,8.9-0.1,13.4-0.4c0.2,0,0.4,0,0.6,0l-2.6-2.4c0,0.1,0-0.7,0,0s0.1-0.1,0,0.1
			s-0.1,0.4-0.2,0.6s-0.5,0.9-0.1,0.2c-0.7,1.1-1.4,2-2.3,2.9c-0.2,0.3-0.5,0.5-0.8,0.8s0.2-0.2,0,0l-0.5,0.5
			c-0.7,0.6-1.4,1.2-2.1,1.8c-1.6,1.3-3.3,2.6-5,3.8c-9.6,6.9-20,12.8-30.4,18.5c-13.8,7.5-27.8,14.6-41.9,21.5
			c-15.2,7.5-30.6,14.7-46,21.8c-14.2,6.5-28.4,12.8-42.7,19c-10.6,4.6-21.3,9.1-32.1,13.3c-3.2,1.3-6.5,2.5-9.8,3.6
			c-1,0.3-1.9,0.6-2.9,0.9l-0.5,0.1c-0.6,0.1,0,0,0.1,0c-0.6,0-0.4,0,0.1,0.1c-0.2-0.1,0.6,0.4,0.1,0c-0.2-0.1-0.4-0.2-0.6-0.3
			c-0.6-0.3-1.1-0.7-1.7-1c-1.9-1.2-3.7-2.4-5.5-3.6c-5.6-3.8-11.1-7.7-16.9-11.8c-15.7-11.2-31.4-22.5-46.9-33.9
			c-13.3-9.7-26.6-19.3-39.7-29.1c-5-3.6-8.5-8.8-10-14.8c-0.2-1.3-1.3-2.3-2.6-2.4c-1.2,0.1-2,1-2,2.2
			C89.3,341.1,89.3,341.2,89.3,341.3z"></path><path class="st1" d="M85.7,321.6c0,0-40.7-216.8-37.5-219.3s230.3-44.1,237.7-40s16.3,176.4,13.1,183.7S86.5,326.4,85.7,321.6z"></path><path class="st0" d="M88.2,321.5l-1-5.3c-0.9-4.8-1.8-9.7-2.7-14.5c-1.3-7.2-2.7-14.4-4-21.6c-1.6-8.8-3.3-17.7-4.9-26.5
			c-1.8-9.8-3.6-19.7-5.4-29.5c-1.8-10.1-3.6-20.3-5.4-30.4c-1.7-9.7-3.4-19.3-5.1-29c-1.5-8.6-2.9-17.2-4.3-25.8
			c-1.1-6.8-2.2-13.6-3.2-20.4c-0.6-4.3-1.3-8.5-1.6-12.8c0-0.3,0-0.7-0.1-1c0,0,0,0.4,0,0c0-0.1,0-0.3,0-0.4c0-0.4,0-0.8,0-1.1
			c0-0.1,0.1-0.2,0.1-0.3c0.1,0.2-0.5,1-0.8,0.8c0.1,0,0.2-0.1,0.2-0.1c0,0,0.1,0,0.2-0.1c0.3-0.1-0.7,0.2-0.3,0.1
			c2.9-0.7,5.8-1.4,8.7-2c5.6-1.2,11.3-2.3,16.9-3.4c7.7-1.5,15.5-3,23.2-4.5c9.2-1.7,18.5-3.4,27.7-5.1c10-1.8,20.1-3.6,30.1-5.4
			c10.3-1.8,20.6-3.6,31-5.4c9.9-1.7,19.8-3.4,29.8-5c8.9-1.5,17.8-2.9,26.7-4.2c7.2-1.1,14.5-2.2,21.8-3.1c1.5-0.2,2.9-0.4,4.4-0.6
			l2.1-0.2l0.9-0.1h0.5c0.4,0-0.6,0.1,0,0c2.2-0.2,4.3-0.5,6.5-0.6c1.4-0.1,2.9-0.2,4.3-0.2h0.4c0.3,0-0.8-0.1-0.3,0
			c0.2,0,0.4,0.1,0.5,0.1c0.4,0-0.8-0.2-0.4-0.1c0.2,0.1,0.3,0.2-0.1-0.1s-0.2,0-0.6-0.3c0.2,0.2,0.1,0,0,0s-0.1-0.3,0,0l0.2,0.3
			c0.1,0.1,0.1,0.2,0.1,0.3c-0.2-0.3-0.1-0.3,0,0c0.3,0.7,0.5,1.3,0.7,2c0.6,2.1,1,4.2,1.4,6.3c1.1,6.6,1.9,13.3,2.6,20
			c1,9.1,1.8,18.2,2.5,27.2c0.8,10.3,1.6,20.7,2.2,31s1.2,20.7,1.8,31.2c0.5,9.5,0.9,18.9,1.2,28.4c0.2,7.3,0.4,14.6,0.5,22
			c0.2,4.1,0,8.2-0.4,12.3c0,0.2-0.1,0.5-0.1,0.7s-0.2,0.7,0,0.1c0,0.1-0.1,0.2-0.2,0.3c0.3-0.4,0.2-0.2-0.1,0s-0.8,0.6-1.2,0.8
			s0.5-0.2,0,0l-0.4,0.2l-1,0.5c-4.1,2.1-8.4,3.9-12.6,5.7c-6.5,2.7-13.1,5.3-19.7,7.9c-8.3,3.2-16.6,6.3-24.9,9.4
			c-9.3,3.5-18.7,6.9-28.1,10.2c-9.8,3.5-19.5,6.9-29.3,10.4c-9.5,3.3-19,6.6-28.5,9.8c-8.5,2.9-17.1,5.7-25.7,8.5l-5.8,1.9
			l-2.7,0.9l-0.7,0.2c0.4-0.1-0.2,0-0.3,0.1l-1.3,0.4c-3.2,1-6.5,2-9.8,3c-4.7,1.4-9.4,2.8-14.2,4c-1.3,0.3-2.6,0.5-3.8,0.8
			c-0.4,0.1,0.7-0.1,0,0c-0.1,0-0.4,0-0.5,0s0.9,0.1,0.5,0s0.8,0.2,0.5,0.1C87.3,320.5,88,320.9,88.2,321.5c-0.4-2-5.4-2.2-4.9,0.1
			c0.3,1.6,2.7,1.9,4,1.8c1.4-0.1,2.8-0.4,4.2-0.7c4.7-1.1,9.2-2.4,13.8-3.8c7.1-2.1,14.1-4.3,21.2-6.6c8.7-2.8,17.3-5.6,25.9-8.5
			c9.6-3.2,19.2-6.5,28.7-9.7c9.9-3.4,19.7-6.9,29.6-10.4c9.5-3.4,19-6.8,28.4-10.3c8.4-3.1,16.8-6.3,25.2-9.5
			c6.7-2.6,13.4-5.2,20-8c4.3-1.8,8.6-3.6,12.7-5.8c2-1,4.3-2,4.7-4.4c0.7-3.9,0.5-8.1,0.5-12.1c0-7.4-0.2-14.7-0.4-22
			c-0.3-9.5-0.7-19.1-1.2-28.6c-0.5-10.6-1.1-21.2-1.8-31.9c-0.7-10.4-1.4-20.9-2.2-31.3c-0.7-9.2-1.5-18.3-2.5-27.5
			c-0.7-6.8-1.5-13.5-2.7-20.2c-0.4-2.1-0.8-4.2-1.4-6.3c-0.3-1.3-0.8-2.5-1.5-3.5c-1.8-2.3-5.7-1.7-8.3-1.6c-5,0.3-10,1-15,1.6
			c-7.2,0.9-14.4,2-21.5,3.1c-8.9,1.3-17.9,2.7-26.8,4.2c-10,1.6-20,3.3-29.9,5c-10.4,1.8-20.8,3.6-31.2,5.4
			c-10.2,1.8-20.4,3.6-30.6,5.5c-9.3,1.7-18.7,3.4-28,5.2C89.3,92,81.5,93.5,73.7,95c-5.7,1.1-11.4,2.2-17.1,3.4
			c-2.9,0.6-5.9,1.2-8.8,2c-1,0.3-2,0.6-2.2,1.8c-0.1,1-0.1,2,0,3.1c0.3,4.2,0.9,8.3,1.5,12.5c1,6.8,2,13.5,3.1,20.2
			c1.4,8.6,2.8,17.2,4.3,25.8c1.7,9.8,3.4,19.6,5.1,29.3c1.8,10.2,3.6,20.4,5.5,30.6c1.8,9.9,3.6,19.9,5.4,29.8
			c1.7,9,3.3,17.9,5,26.9c1.3,7.2,2.7,14.5,4,21.7c0.9,4.8,1.8,9.6,2.7,14.5c0.3,1.7,0.6,3.4,1,5C83.6,323.6,88.6,323.9,88.2,321.5z
			"></path><path class="st1" d="M94.8,302.4c0,0-27.8-176.4-26.9-179.7s199.3-42.5,203.4-39.2s18,147,14.7,153.5S103.8,301.6,94.8,302.4z"></path><path class="st0" d="M97.1,303c-0.2-1.5-0.5-3.1-0.7-4.7c-0.7-4.3-1.3-8.5-2-12.8c-1-6.3-2-12.6-3-18.9
			c-1.2-7.7-2.4-15.4-3.6-23.1c-1.3-8.5-2.6-16.9-3.9-25.4c-1.3-8.6-2.7-17.2-4-25.9c-1.2-8.1-2.4-16.1-3.7-24.2
			c-1-6.9-2.1-13.8-3.1-20.7c-0.7-5.1-1.5-10.2-2.2-15.4c-0.3-2.7-0.8-5.4-0.9-8.1c0-0.1,0-0.3,0-0.4c0-0.3,0.1-0.2,0,0.1
			c0.1-0.2-0.2,0.3-0.1,0.1s0.2-0.1,0.2-0.1c-0.1,0.2-0.4,0.2,0,0l0.5-0.2c0.4-0.2,0.9-0.3,1.3-0.4c3.2-1,6.5-1.8,9.8-2.6
			c5.3-1.3,10.7-2.5,16-3.7c6.8-1.5,13.7-3,20.6-4.4c7.9-1.7,15.8-3.3,23.8-4.9c8.4-1.7,16.8-3.4,25.2-5c8.6-1.7,17.2-3.3,25.8-5
			c8.1-1.5,16.2-3,24.4-4.5c7.2-1.3,14.4-2.6,21.6-3.8c5.8-1,11.6-1.9,17.4-2.8c3.9-0.6,7.7-1.2,11.6-1.5c0.6,0,1.2-0.1,1.8-0.1
			c0.3,0,0.5,0,0.8,0h0.3c0.5,0-0.5,0-0.2,0c0.2,0,0.3,0,0.5,0c0.6,0-0.6-0.1-0.2,0c-0.5-0.1-1-0.4-1.5-0.7
			c-0.2-0.2-0.5-0.4-0.5-0.6c0,0,0.1,0.1,0.1,0.2c0.1,0.2,0.1,0.3,0.2,0.5c0.1,0.3,0,0.2,0,0c0,0.1,0.1,0.2,0.1,0.3
			c0.2,0.6,0.3,1.2,0.5,1.8c0.4,1.8,0.7,3.7,1.1,5.5c1,5.8,1.8,11.6,2.5,17.3c1,7.7,1.9,15.4,2.7,23.2c0.9,8.7,1.8,17.5,2.7,26.2
			c0.8,8.7,1.6,17.5,2.4,26.3c0.7,7.9,1.3,15.8,1.8,23.7c0.4,6,0.7,12,0.9,17.9c0,2,0.1,4,0,6c0,0.7,0,1.4-0.1,2.1
			c0,0.1,0,0.3,0,0.4c0-0.2,0-0.1,0,0.1s-0.1,0.4-0.1,0.6s-0.1,0.3-0.1,0.4c0,0.3,0,0,0,0c-0.2,0.2-0.5,0.4-0.7,0.6
			c-0.4,0.3-0.8,0.5-1.3,0.8l-0.1,0.1l-0.5,0.2l-1,0.5c-3.8,1.8-7.7,3.4-11.6,4.9c-5.8,2.3-11.6,4.4-17.5,6.6
			c-7.2,2.6-14.5,5.2-21.8,7.7c-8.2,2.8-16.3,5.6-24.6,8.4c-8.5,2.9-17,5.7-25.5,8.5c-8.3,2.7-16.6,5.4-24.9,8.1
			c-7.6,2.4-15.1,4.9-22.7,7.2c-6.3,2-12.6,4-19,5.9c-4.5,1.4-8.9,2.7-13.4,4c-1.3,0.4-2.7,0.7-4,1.1l-1.3,0.3
			c-0.3,0.1,0.5-0.1,0.2,0c-0.1,0-0.1,0-0.2,0l-0.4,0c-1,0.1-1.3,0.9-0.7,1.6c0.9,0.9,2.1,1.4,3.3,1.3c2.4-0.4,4.7-0.9,7-1.7
			c4.6-1.3,9.2-2.7,13.7-4c6.4-1.9,12.8-3.9,19.2-6c7.7-2.4,15.3-4.9,22.9-7.3c8.4-2.7,16.8-5.5,25.2-8.2c8.6-2.8,17.1-5.7,25.7-8.6
			c8.2-2.8,16.4-5.6,24.5-8.4c7.3-2.5,14.5-5.1,21.7-7.7c5.8-2.1,11.5-4.2,17.2-6.5c3.7-1.5,7.4-3,11-4.7c1.5-0.7,3.7-1.5,4-3.4
			c0.6-3.3,0.3-6.9,0.2-10.3c-0.2-6.2-0.5-12.3-1-18.5c-0.5-8-1.1-16-1.8-24.1c-0.7-8.9-1.5-17.8-2.4-26.7
			c-0.8-8.7-1.7-17.5-2.7-26.2c-0.8-7.7-1.7-15.4-2.7-23.1c-0.7-5.6-1.5-11.2-2.5-16.8c-0.3-1.7-0.6-3.4-1-5.1
			c-0.2-1.1-0.6-2.1-1.1-3c-1.7-2.3-5.1-1.9-7.5-1.7c-3.8,0.3-7.7,0.9-11.5,1.4c-5.8,0.9-11.5,1.8-17.3,2.8
			c-7.2,1.2-14.5,2.5-21.7,3.8c-8.2,1.5-16.4,3-24.6,4.6c-8.6,1.6-17.3,3.3-25.9,5c-8.6,1.7-17.3,3.4-25.9,5.2c-8,1.6-16,3.3-24,4.9
			c-6.9,1.4-13.9,2.9-20.8,4.4c-5.3,1.2-10.7,2.4-16,3.6c-3.3,0.8-6.6,1.6-9.8,2.6c-0.8,0.2-1.7,0.6-2.4,1c-0.5,0.4-0.6,0.8-0.5,1.4
			c0.2,2.6,0.5,5.2,0.9,7.8c0.7,5.1,1.4,10.2,2.1,15.3c1,6.9,2,13.9,3.1,20.9c1.2,8.1,2.4,16.2,3.7,24.3c1.3,8.7,2.7,17.3,4,26
			c1.3,8.5,2.7,17.1,4,25.6c1.2,7.8,2.4,15.5,3.6,23.3c1,6.3,2,12.6,3,19c0.7,4.2,1.3,8.4,2,12.6l0.7,4.4
			C92.7,303.5,97.4,304.8,97.1,303z"></path><path class="st1" d="M90.7,337.5c0,0,118.4,93.1,128.2,93.1s218.1-98,215.6-104.5s-127.7-66.1-134.9-66.1S90.7,337.5,90.7,337.5z"></path><path class="st0" d="M88.6,338.7c5.8,4.5,11.6,9,17.3,13.5c13,10.1,26.1,20.2,39.3,30.2c14.1,10.7,28.2,21.2,42.6,31.5
			c5.5,3.9,11.1,7.8,16.7,11.5c3.4,2.4,7,4.4,10.7,6.1c2.1,0.9,4,0.5,6.1-0.1c3.4-1.1,6.8-2.4,10.1-3.8c11.5-4.7,22.9-9.8,34.3-14.9
			c15.6-7,31.1-14.2,46.6-21.5c16.5-7.8,33-15.7,49.5-23.7c14.3-7,28.6-14.1,42.7-21.5c9.2-4.8,18.5-9.5,27.1-15.2
			c1.7-1.1,4.2-2.5,5.1-4.4s-2.8-3.8-4-4.7c-10.9-7.2-23-12.9-34.6-18.9c-16.5-8.3-33.1-16.4-49.8-24.2c-12.9-6-25.9-12.1-39.1-17.4
			c-2.6-1-5.9-2.8-8.7-2.6c-2.3,0.2-4.7,1.1-6.9,1.9c-10.2,3.3-20.2,7-30.2,10.6c-15.4,5.6-30.8,11.3-46.1,17.1
			c-17.1,6.4-34.1,12.8-51.1,19.3c-14.9,5.6-29.7,11.3-44.6,17c-9.2,3.5-18.4,7-27.5,10.5l-3.7,1.4c-0.6,0.2-2.3,1.1-1.9,2
			s2.2,0.4,2.8,0.2c4.9-1.9,9.8-3.8,14.8-5.7c12.4-4.7,24.8-9.5,37.1-14.2c16.2-6.2,32.5-12.4,48.7-18.5c16.5-6.2,33-12.4,49.6-18.6
			c13.2-4.9,26.4-9.8,39.6-14.5c4.2-1.5,8.5-3,12.7-4.4l1.1-0.4c0.3-0.1-0.7,0.2,0,0l0.5-0.2c0.6-0.2,1.2-0.4,1.8-0.5l1.3-0.3
			l0.5-0.1c-0.2,0-0.7,0.1-0.2,0h-0.2c0.4,0-0.4-0.1,0.2,0s1.1,0.3,1.7,0.5c1.8,0.6,3.5,1.2,5.2,1.9c5.6,2.2,11.1,4.6,16.5,7.1
			c15.8,7,31.5,14.5,47.1,22c15.1,7.3,30.1,14.8,44.9,22.7c4.7,2.6,9.5,5.1,14,8.1c1.3,0.8,2.4,1.6,3.5,2.6c0.1,0.1,0.3,0.3,0.4,0.5
			s-0.2,0.1,0.1,0.2c0,0,0.1-0.1,0-0.1c-0.1,0.3-0.2,0.3,0,0c-0.1,0.1-0.2,0.3-0.4,0.4l-0.4,0.4c0.6-0.6-0.1,0-0.3,0.2
			c-1.1,0.8-2.2,1.6-3.3,2.3l-0.5,0.3l-0.2,0.1l-1.2,0.8c-0.9,0.5-1.8,1-2.6,1.6c-2,1.2-4.1,2.4-6.2,3.5
			c-11.9,6.6-24,12.8-36.1,18.8c-15.6,7.8-31.2,15.5-46.9,23c-16,7.7-32.1,15.2-48.2,22.7c-13.6,6.3-27.2,12.5-40.9,18.4
			c-4.9,2.1-9.8,4.2-14.7,6.2c-1.8,0.7-3.6,1.4-5.4,2.1l-2.2,0.8l-0.9,0.3l-0.3,0.1l-1.4,0.4c-0.2,0-0.3,0.1-0.5,0.1
			c0.3-0.1,0.6-0.1,0.1,0c-0.3,0,0.7-0.1,0.1,0c-0.3,0.1,0.5,0.1,0.1,0l-0.4-0.1c-0.5-0.2-1.1-0.4-1.6-0.6c-3.8-1.9-7.5-4.1-11-6.6
			c-12.9-8.5-25.3-17.7-37.7-26.8c-14.4-10.7-28.6-21.5-42.7-32.4c-9.9-7.6-19.8-15.3-29.7-23l-4.3-3.4
			C91.6,335.4,87.2,337.6,88.6,338.7z"></path><path class="st0" d="M177.1,85c0,0-4.3,1.8-3.3,5.9s6.7,1.8,7.2-1.2S179.4,83.2,177.1,85z"></path><path class="st0" d="M368.1,309.4c-0.6-0.8-2.5-0.4-3.2-0.1l-4.7,2l-12.7,5.3l-18.9,7.9l-7.7,3.2l-16.4-9.4l-7.7-4.4l5.4-2.2
			l19.9-8.3l14.3-6c2.3-1,4.6-1.9,6.8-2.9l0.3-0.1c0.9-0.4,0.9-0.9,0-1.2c-1.2-0.4-2.4-0.4-3.5,0.1l-4.7,2l-12.7,5.3l-18.7,7.8
			l-9.8,4.1l-11.7-6.7l-11-6.3l5.8-2.5l19.1-8.2l13.7-5.9c2.1-0.9,4.5-1.7,6.5-2.8c0.1,0,0.2-0.1,0.3-0.1c0.6-0.3-1.1-1.2-1.3-1.3
			c-0.6-0.3-2.2-1.3-2.9-1l-4.5,1.9l-12.2,5.2l-18,7.7l-10.7,4.6l-4-2.3c-3.1-1.8-6.1-3.8-9.3-5.3l-0.1-0.1c-1-0.5-2.1-0.1-2.6,0.9
			c-0.1,0.1-0.1,0.2-0.1,0.4c-0.3,1.3,0.3,2.6,1.5,3.2l7.6,4.3l1.9,1.1l-6,2.6l-24,10.3l-12.8,5.5l-1.7-1l-8.9-5.2
			c-1-0.5-2.2-0.8-3.3-0.9c-0.3,0-1.9-0.1-1,0.4l13,7.6l-9.4,4l-22.6,9.7l-7,3l-3.1-2l-6.6-4.2l-2.1-1.3c-0.3-0.3-0.7-0.5-1.1-0.7
			c-0.1,0-0.1-0.1-0.1-0.1c-0.4-0.2-1.9,1-2.2,1.2c-0.7,0.5-1.3,1-1.9,1.6l7.9,5.1l4,2.6l-6.9,3l-13.7,5.8c-2.1,0.9-4.5,1.7-6.5,2.8
			l-0.3,0.1c-0.6,0.3,1.1,1.2,1.3,1.3c0.6,0.3,2.2,1.3,2.9,1l4.5-1.9l12.1-5.2l10.4-4.5l11.2,7.1l9.2,5.9l-10.4,4.3l-14.3,6
			c-2.3,1-4.6,1.9-6.8,2.9l-0.3,0.1c-0.9,0.4-0.9,0.9,0,1.2c1.2,0.4,2.4,0.3,3.5-0.1l4.7-2l12.7-5.3l13.5-5.5l11.3,7.2l11.1,7.1
			l-11.1,4.6l-14.5,6l-6.8,2.8l-0.3,0.1c-0.6,0.3-2,0.9-1.4,1.8s2.5,0.4,3.2,0.1l4.7-2l12.7-5.3l16-6.7l6.3,4l6.6,4.2l2.1,1.3
			c0.3,0.3,0.7,0.5,1.1,0.7c0,0,0.1,0.1,0.1,0.1c0.4,0.2,1.9-1,2.2-1.2c0.7-0.5,1.3-1,1.9-1.6l-7.9-5.1l-7.2-4.6l20.7-8.6l21.4-8.9
			l4.9,2.9c1,0.5,2.2,0.8,3.3,0.9c0.3,0,1.9,0.1,1-0.4c-2.4-1.4-4.8-2.8-7.2-4.2l1.7-0.7l25.4-10.6l16.9-7l1.3,0.8
			c3.1,1.8,6.1,3.8,9.3,5.3c0,0,0.1,0,0.1,0.1c1,0.5,2.1,0,2.6-0.9c0.1-0.1,0.1-0.2,0.1-0.4c0.3-1.3-0.3-2.6-1.5-3.2l-6.7-3.9
			l1.5-0.6l20-8.3l14.5-6c2.3-0.9,4.5-1.9,6.8-2.8l0.3-0.1C367.4,311,368.7,310.3,368.1,309.4z M280.5,344.4l-8.8,3.7l-14.8-8.6
			l-8.9-5.2l5.3-2.2l25.3-10.6l13-5.5l9,5.1l15.1,8.7l-10,4.2L280.5,344.4z M231.4,364.9l-3.8,1.6l-9.4-6l-13.1-8.4l0.1,0l22.9-9.6
			l17.8-7.4l22.3,13.1l1.4,0.8l-14.6,6L231.4,364.9z M206.4,327.1l15-6.4l7.7,4.5l14.3,8.4l-12.6,5.3l-23.7,9.9l-4.3,1.8l-7.4-4.8
			l-13-8.3l2.4-1L206.4,327.1z M254.7,306.4l11.6-5l12.3,7l10.4,6l-8,3.3l-25,10.5l-10.6,4.4l-22-12.9l7.1-3L254.7,306.4z"></path></g><path class="st1" d="M117.1,271.1c0,0-7.3-33.9-5.5-35.8s25.5-6.7,25.5-6.7l6.7,34.6L117.1,271.1z" fill="#FFFFFF"></path><path class="st2" d="M119.3,269.9c-1.8-8.2-3.4-16.4-4.7-24.7c-0.3-2.3-0.7-4.5-0.9-6.8c-0.1-0.8-0.2-1.6-0.2-2.4
		c0-0.4,0.2-1,0.2-1.4c0-0.2,0,0,0,0c-0.4,0.2-0.9,0.7-1.3,1c0.2-0.1-0.7,0.3-0.1,0.1s-0.4,0.1,0.2-0.1c0.4-0.1,0.8-0.3,1.2-0.4
		c0.7-0.2,0.8-0.2,1.3-0.4c2.6-0.8,5.3-1.4,7.9-2c4.3-1,8.6-2,13-2.9l-0.9-0.1l5.8,30.2l0.8,4.3l3.6-2.4l-23.3,6.9l-3.3,1
		c-1.2,0.3-2.2,0.9-3.1,1.7c-0.6,0.6-0.5,1.1,0.4,0.8l23.3-6.9l3.4-1c0.9-0.2,1.7-0.6,2.5-1.2c0.3-0.2,1.2-0.7,1.1-1.2l-5.8-30.2
		l-0.8-4.3c-0.1-0.2-0.8-0.1-0.9-0.1c-3.9,0.8-7.8,1.7-11.7,2.6c-2.8,0.7-5.7,1.4-8.5,2.1c-2.3,0.5-4.5,1.3-6.6,2.4
		c-1.7,0.9-2.5,1.7-2.5,3.6c0,2,0.2,4,0.6,6c0.8,5.7,1.8,11.3,2.9,16.9c0.7,3.8,1.5,7.5,2.3,11.2C115,272.8,119.6,271.2,119.3,269.9
		z" fill="#4c53be"></path><path class="st1" d="M156.6,260.1c0,0-12.5-69.5-10.7-71.3s25.5-6.7,25.5-6.7l12.2,68.9L156.6,260.1z" fill="#FFFFFF"></path><path class="st2" d="M159,259.4c-0.7-3.8-1.3-7.7-2-11.5c-1.5-8.4-2.9-16.8-4.3-25.2c-1.3-8.2-2.7-16.4-3.7-24.6
		c-0.3-2.5-0.7-5.1-0.8-7.7c-0.1-0.6-0.1-1.3,0-1.9c0.1-0.3,0.1-0.2,0.1-0.3s0.3-0.2,0.1-0.1l0.3-0.1c-0.4,0.2-0.1,0,0.1,0
		c0.4-0.2-0.4,0.1,0,0l0.6-0.2c0.6-0.2-0.3,0.1,0.2-0.1l0.7-0.2l1.3-0.4c-0.5,0.1,0.2,0,0.4-0.1l0.8-0.2c2.2-0.6,4.5-1.1,6.5-1.6
		c3.5-0.8,7-1.6,10.5-2.3l0.6-0.1L169,183l4.1,23.3l6.6,37.1l1.5,8.5l1.7-0.8l-23.6,7.9l-3.4,1.1c-0.3,0.1-1.8,0.5-1.6,0.9
		s2.7-0.6,3-0.7l23.6-7.9l3.4-1.1c0.2-0.1,1.7-0.5,1.7-0.8l-4.1-23.3l-6.6-37.1l-1.5-8.5c0-0.2-1.2,0.1-1.3,0.1
		c-7.5,1.5-15,3.1-22.3,5.3c-1.9,0.5-3.7,1.1-5.5,1.9c-0.6,0.3-1.2,0.5-1.4,1.3c-0.1,1.9,0,3.8,0.3,5.6c0.9,7.9,2.1,15.7,3.4,23.5
		c1.4,8.9,2.9,17.9,4.5,26.8c0.6,3.3,1.1,6.5,1.7,9.8l0.6,3.2c0,0.6,0.1,1.1,0.3,1.7c0,0.1,0,0.1,0,0.2
		C154.2,261.1,159.1,260.1,159,259.4z" fill="#4c53be"></path><path class="st2" d="M235.3,235.4c0,0-14.9-80.9-13.1-82.7s25.5-6.7,25.5-6.7l14.1,80.7L235.3,235.4z" fill="#4c53be"></path><path class="st2" d="M237.6,234.5c-0.8-4.2-1.5-8.4-2.3-12.7c-1.7-9.3-3.3-18.7-4.9-28c-1.6-9.4-3.2-18.8-4.6-28.2
		c-0.5-3.2-0.9-6.4-1.2-9.7c0-0.3-0.1-0.5-0.1-0.8c-0.1-0.6,0,0.4,0-0.4c0-0.4,0-0.8-0.1-1.2c0-0.3,0-0.5,0-0.8
		c-0.1-0.4-0.2,0.6-0.1,0.3s-0.3,0.6-0.2,0.4s-0.5,0.6-0.3,0.4c0,0-0.6,0.5-0.3,0.3s-0.1,0-0.2,0.1c0.1,0,0.3-0.1,0.4-0.2
		c0.4-0.1,0.7-0.3,1-0.4c0.9-0.3,1.8-0.6,2.7-0.8c1.3-0.4,1.7-0.5,3.1-0.8s2.6-0.6,3.9-0.9c4.2-1,8.3-1.9,12.5-2.8l0.7-0.1l-2.1-1.2
		l4.8,27.3l7.6,43.5l1.7,10l1.8-2.8l-23.2,7.6l-3.3,1.1c-1.2,0.4-2,1.6-1.8,2.8c0.3,1.3,1.7,1.4,2.8,1l23.2-7.6l3.3-1.1
		c1.2-0.4,2-1.6,1.8-2.8l-4.8-27.3l-7.6-43.5l-1.8-10c-0.3-0.8-1.2-1.3-2.1-1.1c-3.2,0.7-6.4,1.4-9.7,2.1c-4.9,1-9.8,2.3-14.5,3.8
		c-1.4,0.5-3.2,1.2-3.7,2.8c-0.2,0.7-0.3,1.4-0.2,2.1c0.1,2.8,0.5,5.5,0.9,8.3c1.2,9.1,2.8,18.2,4.3,27.3c1.7,9.9,3.4,19.8,5.2,29.7
		c0.6,3.6,1.3,7.1,1.9,10.7c0.3,1.7,0.5,3.5,1,5.2c0,0.1,0,0.2,0,0.2C233.4,238.9,238,236.9,237.6,234.5z" fill="#4c53be"></path><path class="st1" d="M197.1,246.9c0,0-7.3-33.9-5.5-35.8s25.5-6.7,25.5-6.7l6.7,34.6L197.1,246.9z" fill="#FFFFFF"></path><path class="st2" d="M199.4,246.1c-1.8-8.2-3.4-16.4-4.7-24.7c-0.4-2.3-0.7-4.5-0.9-6.8c-0.2-1.3-0.2-2.7,0-4
		c0.1-0.2,0.1-0.1,0.2-0.3c-0.1,0.1,0,0.1,0.1-0.1c-0.2,0.2-0.2,0.1-0.1,0.1c0.3-0.2-0.4,0.2,0,0s-0.5,0.2,0.1,0
		c-0.5,0.2-0.2,0.1,0.1,0l0.3-0.1c-0.1,0-0.6,0.2-0.1,0l0.9-0.3l1.3-0.4l2.1-0.6c1.3-0.3,2.6-0.6,3.9-0.9c4.3-1,8.6-2,12.9-2.9h-0.8
		l5.8,30.2l0.8,4.3l2.9-1.3l-23.4,6.9l-3.4,1c-0.4,0.1-2.8,0.7-2.8,1.2s1.6-0.1,1.8-0.2l23.3-6.9l3.4-1c0.2,0,3-0.9,2.9-1.3
		l-5.9-30.2l-0.8-4.3c0-0.1-0.8,0-0.8,0c-3.9,0.8-7.8,1.7-11.7,2.6c-2.9,0.7-5.9,1.4-8.8,2.2c-2.7,0.6-5.3,1.5-7.8,2.7
		c-1,0.3-1.7,1.4-1.5,2.5c0,2,0.2,4,0.5,5.9c0.8,5.7,1.8,11.3,2.9,16.9c0.7,3.8,1.5,7.5,2.3,11.2C194.7,248,199.6,246.7,199.4,246.1
		z" fill="#4c53be"></path><path class="st2" d="M196.1,223.4c0.2-0.3,0.3-0.6,0.5-0.9c0.1-0.2,0.2-0.4,0.3-0.6c0.4-0.6,0.7-1.2,1.1-1.9
		c0.8-1.2,1.6-2.4,2.4-3.5s1.7-2.2,2.6-3.2c0.5-0.5,1-1.1,1.5-1.6l0.3-0.4c-0.2,0.2,0,0,0.1-0.1c0.3-0.3,0.6-0.6,0.9-0.9
		c0.8-0.8,1.3-2.2,0.2-3c-1-0.8-2.5-0.8-3.5,0c-4.5,4.3-8.2,9.3-11.2,14.8c-0.6,1.1,0.4,2.4,1.5,2.6
		C194.2,225.2,195.5,224.6,196.1,223.4L196.1,223.4z" fill="#4c53be"></path><path class="st2" d="M199.1,237.5c5.3-9.8,14.1-17.2,19.5-26.9c1.1-1.9-3.8-3.1-4.7-1.4c-5.4,9.8-14.2,17.1-19.5,26.9
		C193.4,238.1,198.2,239.2,199.1,237.5L199.1,237.5z" fill="#4c53be"></path><path class="st2" d="M205.6,244.7c2.6-3.5,5.2-7,7.9-10.4c1.3-1.7,2.7-3.3,4-5c1.2-1.7,2.6-3.1,4.3-4.2c0.7-0.4-1.3-1.2-1.4-1.3
		c-0.8-0.3-2.3-0.8-3.1-0.3c-1.6,1-3,2.3-4.1,3.9c-1.4,1.7-2.9,3.5-4.3,5.3c-2.8,3.5-5.5,7.1-8.1,10.7
		C200.5,243.8,204.8,245.9,205.6,244.7L205.6,244.7z" fill="#4c53be"></path><path class="st2" d="M152.1,215.1c6.2-8.9,15.5-15.6,20.4-25.4c1.2-2.4-3.7-2.6-4.5-0.8c-4.9,9.9-14.2,16.5-20.4,25.4
		c-0.7,1,0.4,1.8,1.2,1.9C150,216.5,151.3,216.1,152.1,215.1L152.1,215.1z" fill="#4c53be"></path><path class="st2" d="M156.5,247.7c7.2-9.7,14.8-19.1,22.8-28.2c1-1.2-2.2-4.9-3.1-4c-8,9-15.6,18.4-22.8,28.2
		C152.5,245,155.8,248.5,156.5,247.7L156.5,247.7z" fill="#4c53be"></path><path class="st0" d="M122.5,201.4c0-7.2,2.4-14.2,6-20.4c3.4-5.9,7.7-11.2,12.7-15.8c4.5-4.1,9.8-7.2,15.6-8.9
		c5.6-1.5,11.6-1.4,17.1,0.6c5.4,1.8,10.1,5.1,13.6,9.6c1.7,2.2,2.9,4.8,3.7,7.4c0.4,1.4,0.6,2.8,0.6,4.2c0,0.7-0.1,1.4-0.3,2
		c-0.2,0.5-0.8,0.9,0.2,0.4s0.3-0.3-0.3-0.5c-3.1-1.1-4.6-5-5.2-8c-0.7-3.5-0.5-7,0.4-10.4c1.9-6.9,6.5-12.9,11.1-18.2
		c8.1-9.5,18.6-19,31.4-20.8c1.6-0.2,3.2-0.3,4.8-0.3l-0.5-0.3c0.7,1.4,0.5,3.2-0.5,4.4c0,0-0.3,0.4-0.3,0.3s0.4,0,0.1-0.1
		c-0.2,0-0.4,0-0.7,0c-1.1-0.1-2.1-0.4-3-1c-4-2.4-5.1-7.4-5.9-11.7l-1.3,1.6c2-1.3,4.8-0.5,6.6,0.7c1.1,0.8,5.2-1.8,4.1-2.5
		c-3.9-2.6-9-1.7-12.7,0.8c-0.5,0.3-1.4,0.9-1.3,1.6c1.1,5.4,3.1,12.6,9.7,13.2c3,0.2,6-1,8.1-3.2c1.6-1.7,2.6-4.2,1.4-6.3
		c-0.1-0.2-0.3-0.3-0.5-0.3c-15.6-0.2-29.3,9.1-39.7,20c-5.4,5.7-10.9,12.1-14.1,19.3c-1.6,3.5-2.5,7.4-2.4,11.3
		c0.1,3.6,1,7.9,3.6,10.5c1.1,1.3,2.6,2,4.3,2.1c2.1-0.1,4.1-1,5.6-2.5c2.3-2.4,1.6-6.2,0.8-9c-1.7-6-6.1-10.9-11.4-14.2
		c-5.5-3.4-11.9-5-18.4-4.7c-7.5,0.4-14.9,3.4-21.1,7.5c-6.3,4.2-11.7,9.4-16.2,15.4c-4.7,6.4-8.7,13.7-10,21.6
		c-0.3,2-0.5,3.9-0.5,5.9C118,204.4,122.5,202.8,122.5,201.4L122.5,201.4z" fill="#000005"></path><path class="st2" d="M95.2,139c-1.6,0.2-2.3,1.7-2.8,3c-0.7,1.7-0.6,3.6,0.2,5.2c0.8,1.6,2.3,3.6,4.2,3.9c1.7,0.3,3.2-0.9,4.2-2
		c2.4-2.4,3.9-5.5,4.3-8.9c0.3-3.3-1.1-7.2-4.3-8.5c-0.2-0.1-0.4-0.1-0.6,0c-3.3,5.1,1.3,11.7,5.9,14.2c2.2,1.2,5.3,1.8,7.5,0.2
		c1.7-1.4,2.3-3.7,1.5-5.7c-0.6-1.5-1.5-2.8-2.8-3.8c-0.9-0.7-2.4-1.5-3.2-0.2s0,2.6,0.6,3.6c0.9,1.4,2.1,2.5,3.5,3.3
		c2.1,1.2,5.8,3.1,8,1.1c1.7-1.8,2.2-4.4,1.2-6.7c-0.5-0.9-2.2-3.4-3.6-2.6s-0.3,3,0.2,4c1.4,2.8,4.1,5.4,7.4,5.6
		c0.9,0.1-0.1-1.8-0.2-2c-0.4-0.7-1.3-2-2.3-2.1c-0.8-0.1-1.6-0.3-2.3-0.7c-0.2-0.1-0.1-0.2,0,0.1c-0.1-0.2,0-1,0.4-0.8l-2-2
		l0.2,0.3l-0.6-1.4c0.1,1.3-0.2,2.6-0.8,3.7c-0.8,1.5-2.4,1.7-3.9,1.3c-0.8-0.2-1.5-0.5-2.2-0.9c-0.3-0.2-0.6-0.3-0.9-0.5
		c-1.4-0.9,0.7,1,0.5,1s0.8-1,0.7-0.6l-0.8-1.2c0,0.1,0,0.3,0,0.4c0,0.5-0.2,1.1-0.3,1.6c-1.2,2.9-4.8,2.9-7.2,1.6
		c-0.9-0.4-1.6-1.1-2-2c-0.5-1.5-0.2-3.1,0.6-4.5h-0.6c-0.8-1.4-1.1-1.8-0.9-1.1c0,0.2,0.1,0.4,0.1,0.6c0,0.5,0,1,0,1.4
		c-0.3,2.9-1.5,5.6-3.4,7.8c-0.6,0.8-1.4,1.4-2.2,2c-0.3,0.2-0.6,0.4-1,0.6c-0.3,0.1-0.6,0.1-0.9,0.1c-0.8-0.3-0.7,0.1,0.6,1.1
		c0-0.3,0-0.6,0-0.8c0-0.3,0.1-0.6,0.2-0.9c0.1-0.4,0.3-0.9,0.4-1.3c0.4-0.9,0.9-2,1.9-2.1s-1.2-4.2-2.5-4.1L95.2,139z" fill="#4c53be"></path></g><g id="chart"><path class="st0" d="M357.7,111.2c0-0.8,0-1.6,0-2.4c0-23-18.1-32.2-28.1-35.5l-12.4,36.1L357.7,111.2z"></path><path class="st0" d="M360.1,112.1c0.2-8.4-1.4-16.5-6.5-23.4c-4-5.2-9.2-9.4-15.1-12.2c-3-1.5-6.1-2.8-9.2-3.8
		c-0.2-0.1-1.7-0.6-1.9-0.2l-10.9,31.7l-1.5,4.4c-0.3,0.8,3.7,1.9,4.2,1.9l35.5,1.6l4.9,0.2c1,0-0.4-0.8-0.6-1c-1-0.6-2.1-1-3.2-1.1
		l-35.5-1.6l-4.9-0.2l4.2,1.9l10.9-31.6l1.5-4.4l-1.9-0.3l1.4,0.5c-0.6-0.2,0.2,0.1,0.4,0.2l0.9,0.3l0.8,0.3
		c-0.5-0.2,0.2,0.1,0.4,0.2l0.8,0.4c0.1,0.1,1,0.5,0.7,0.3c2.4,1.2,4.7,2.6,6.8,4.3c5.2,4,9.1,9.4,11.2,15.6
		c1.4,4.6,2.1,9.4,1.8,14.2C355.4,111.4,360.1,112.3,360.1,112.1z"></path><path class="st2" d="M303.6,117.8L316,81.8c-2.1-0.7-4.3-1.3-6.5-1.7c0,0-24.1-3.6-38.3,21.2s-0.2,65.5,38.3,59.6
		c25.5-3.9,34-17.4,34.5-41.3L303.6,117.8z"></path><path class="st2" d="M305.4,119.5l10.9-31.7l1.5-4.4c0.2-0.6-0.6-1.6-0.9-2c-0.5-0.7-1.2-1.3-2-1.6c-3.5-1.2-7.1-1.8-10.8-1.8
		c-5.5,0.1-10.9,1.4-15.9,3.7c-13.9,6.4-23.1,21-24.1,36.1c-0.9,13.7,4.3,27.8,14.9,36.8c5.5,4.7,12.2,7.6,19.3,8.6
		c8.3,1.1,17.1-0.4,24.9-3.3c6.4-2.4,12.1-6.2,16-12c4-6,5.7-13.2,6.4-20.3c0.2-2.1,0.3-4.2,0.3-6.2c0-1.4-1.8-3.6-3.2-3.6
		l-35.5-1.6l-4.9-0.2c-1,0,0.1,1.8,0.3,2c0.5,0.8,1.5,1.8,2.5,1.9l35.5,1.6l4.9,0.2l-3.2-3.6c-0.2,7.3-1,14.9-4,21.6
		c-2.6,5.8-7,10.6-12.6,13.7c-6.8,3.9-15.1,5.8-22.9,6.1c-7,0.5-14.1-1.2-20.2-4.7c-2.4-1.5-4.5-3.3-6.3-5.3c-1-1.1-1.8-2.2-2.6-3.5
		c-0.2-0.3-0.6-1-1-1.6s-0.8-1.4-1.1-2.1c-2.6-5.6-4-11.7-4-17.9c-0.1-14.6,7.4-29,20-36.7c5.1-3.1,10.8-5,16.7-5.5
		c1.7-0.2,3.4-0.2,5.1-0.1c0.4,0,0.9,0.1,1.3,0.1h0.2c-0.5,0-0.1,0,0.2,0c2,0.4,4,0.9,6,1.6l-2.8-3.6l-10.9,31.7l-1.5,4.4
		C301.4,117.4,305,120.7,305.4,119.5z"></path></g><g id="note"><polygon class="st1" points="67.9,381.1 152,411.6 182.5,327.9 118.4,304.6 92,314.7 	"></polygon><path class="st0" d="M66.1,382.6l8.4,3l20,7.3l24.3,8.8l21,7.6l6.9,2.5c1.1,0.5,2.2,0.9,3.3,1.2l0.1,0.1c0.6,0.2,1.8-0.7,2.2-1
		c0.7-0.4,1.3-1,1.7-1.8l3-8.3l7.3-20l8.8-24.1l7.6-20.9l2.5-6.9l0.8-2.1c0.2-0.4,0.3-0.7,0.4-1.1c0,0,0-0.1,0.1-0.1
		c0-0.2,0-0.3-0.2-0.3L154,315.3l-21.8-7.9l-7.8-2.9c-1.3-0.5-2.5-1-3.8-1.4c-1.1-0.3-2.7,0.7-3.7,1.1l-10,3.8l-10.4,4
		c-2.2,0.8-5.5,1.7-6.5,3.9c-1.4,3.1-2.4,6.6-3.6,9.8l-7.6,21l-12.7,34.9l-0.2,0.6c-0.3,0.8,1.8-0.3,1.9-0.3
		c0.9-0.5,1.7-1.2,2.2-2.1l8.2-22.5l13-35.6l3-8.2l-3.3,2.6l19.5-7.5l4.9-1.9l1.4-0.5c0.2-0.1,1-0.4,0.2-0.1c-0.6,0.2-0.3,0-0.1,0.1
		c0.2,0.1,0.4,0.2,0.7,0.2l2.5,0.9l20.6,7.5l25.5,9.3l9.6,3.5l3.1,1.1c0.5,0.3,1.1,0.5,1.7,0.6c0.1,0,0.2,0,0.2,0.1l-0.2-0.3l-3,8.3
		l-7.3,20l-8.8,24.1l-7.6,21c-1.2,3.4-2.7,6.8-3.7,10.2l-0.1,0.1l4-2.8l-8.4-3l-20-7.3l-24.5-8.9l-21-7.6l-6.9-2.5
		c-1.1-0.5-2.2-0.9-3.3-1.2l-0.1,0c-0.8-0.3-2.2,0.9-2.8,1.4C66.8,381.1,65.3,382.4,66.1,382.6z"></path><path class="st2" d="M98.1,324.5l21.5,7.8l34.2,12.4l7.8,2.8c1.1,0.4,2.3,0.5,3.5,0.3c0.9-0.1,0.9-0.5,0.1-0.8l-21.5-7.8
		l-34.2-12.4l-7.8-2.8c-1.1-0.4-2.3-0.5-3.5-0.3C97.3,323.9,97.2,324.2,98.1,324.5L98.1,324.5z"></path><path class="st2" d="M93,342.7l21.5,7.8l34.2,12.4l7.8,2.8c2.7,1,5.2-3.2,2.3-4.3l-21.5-7.8l-34.2-12.4l-7.8-2.8
		C92.6,337.4,90.1,341.6,93,342.7z"></path><path class="st2" d="M88.2,358.9l21.5,7.8l34.2,12.4l7.8,2.8c0.7,0.3,1.5-0.1,1.8-0.8c0.1-0.2,0.1-0.5,0.1-0.7
		c-0.2-1.3-1-2.3-2.2-2.8l-21.5-7.8l-34.2-12.4l-7.8-2.8c-0.7-0.2-1.5,0.1-1.8,0.9c-0.1,0.2-0.1,0.4-0.1,0.6
		C86.2,357.4,87,358.5,88.2,358.9L88.2,358.9z"></path><path class="st2" d="M79.7,374l21.5,7.8l34.2,12.4l7.8,2.8c1.1,0.4,2.2,0.5,3.4,0.5c0.3,0,1.9-0.2,1-0.6l-21.5-7.8l-34.2-12.4
		l-7.9-2.8c-1.1-0.4-2.2-0.5-3.4-0.5C80.4,373.4,78.7,373.6,79.7,374L79.7,374z"></path><polygon class="st0" points="118.4,304.6 113,321.7 92,314.7 	"></polygon><path class="st0" d="M116,305.1l-5.4,17.1l4.3-1.6l-18.3-6.1l-2.6-0.9l-1.1,1.6l23.1-8.9l3.3-1.3c0.4-0.2,1.9-0.9,1.4-1.5
		s-2.6,0.1-3.1,0.4l-23.1,8.9l-3.3,1.3c-0.5,0.2-2.3,1.2-1.1,1.6l18.3,6.1l2.6,0.9c1,0.3,3.9-0.4,4.3-1.6l5.4-17.1
		C121.1,303.1,116.4,303.8,116,305.1z"></path><path class="st0" d="M99.4,343.4c4.8,1.3,9.8,0.8,14.2-1.3c2.7-1.4,0-3.8-1.5-5c-0.8-0.6-1.6-1.2-2.6-0.6c-1,0.7-1.8,1.7-2.3,2.8
		c-0.6,1-1,2-1.3,3.1c-0.2,1.1,0.1,2.2,0.9,2.9c1.5,1.9,3.6,3.2,6,3.7c4.1,0.7,8.4,0.6,12.4-0.5c4.1-1,7.9-2.8,11.3-5.3
		c1.7-1.3,3.3-2.7,4.6-4.3c1.2-1.4,3.3-3.5,2.8-5.5c-0.4-1.1-1.2-2-2.1-2.7c-0.9-1-2-1.6-3.3-1.9c-2.2-0.2-4.1,2.1-5.3,3.7
		c-2.8,3.7-4.6,8.5-5.9,12.9c-0.8,2.6-0.7,5,1.1,7.2c1.8,2.2,4.1,4,6.8,5c2.7,1.1,5.6,1.5,8.6,1.3c2.1-0.2,5.1-1.3,4.2-4
		c-0.2-0.6-3-3.8-3.7-3.2c-2.6,2.3-0.4,5.8,1.5,7.7c1.4,1.5,3.2,2.6,5.1,3.2c1.9,0.4,3.9,0.4,5.8,0.1c0.6,0-0.8-1.5-0.9-1.6
		c-0.4-0.5-1.7-1.9-2.5-1.8c-1.2,0.1-2.4,0.2-3.6,0.2c-0.6,0-1.2-0.1-1.9-0.2c-0.3-0.1-0.6-0.2-0.9-0.3c-0.5-0.2-1.4-0.9-0.1,0.3
		s0.4,0.2,0.2-0.4c-0.1-0.4-0.2-0.9-0.2-1.3c0-0.9,0.4-1.8,1.1-2.4l-3.7-3.2c0.3,1.3-0.4,2.7-1.6,3.1c-1.6,0.7-3.7,0.6-5.4,0.5
		c-1.7-0.1-3.4-0.5-5.1-1.2c-0.4-0.1-1.3-0.8-1.6-0.8c0.7-0.1,0.9,1.3,0.6,0.5c-0.3-0.5-0.4-1.1-0.5-1.7c-0.3-3,1.4-6.5,2.5-9.2
		c1.1-2.9,2.6-5.7,4.6-8.1c0.9-1.1,2.2-2.5,3.7-2.7c0.3,0,0.7,0.1,1,0.1l-2.2-2l0.1,0.4c-0.1,1-0.5,1.9-1.1,2.7
		c-1.5,2.2-3.4,4.1-5.5,5.8c-4.4,3.6-9.8,5.8-15.4,6.6c-3,0.4-6,0.3-9-0.2c-0.3-0.1-0.7-0.2-1-0.2c-1.1-0.5-0.7,0.1,1.4,1.5
		c-0.1-0.2-0.1-0.5,0-0.7c0.1-0.9,0.4-1.9,0.9-2.7c0.4-0.8,0.8-1.5,1.3-2.1c0.3-0.3,0.5-0.6,0.8-0.9c0.6-0.5,1.3-0.5,0.3-1.3l-2-2
		c1.1,1.9-5.6,3.3-6.6,3.4c-2.8,0.4-5.7,0.3-8.5-0.4c-0.6-0.1,0.8,1.5,0.9,1.6C97.6,342.4,98.4,343,99.4,343.4L99.4,343.4z"></path><path class="st0" d="M97.2,369.7c6.9,0.2,13.8-1.9,19.4-6c1.5-1.1,0.8-3.2-0.5-4.1c-2.1-1.4-4.9-1-6.4,0.9
		c-1.7,1.9-2.3,4.9-3.2,7.2c-0.7,2.4-1.8,4.7-3.3,6.8c-0.6,0.9-1.4,1.7-2.3,2.3c-0.5,0.4-1,0.7-1.5,0.9c-0.2,0.1-0.5,0.1-0.7,0.2
		c-0.5,0.2,0-0.1,0.1,0.1l0.4,1.2c0-0.1-0.2,0,0.1-0.1s0.4-0.3,0.6-0.5c0.6-0.4,1.2-0.7,1.8-1c1.2-0.6,2.4-1.1,3.7-1.5
		c2.7-0.8,5.4-1.2,8.2-1.4c2.5-0.1,5.5-0.4,7.9,0.4c0.6,0.2,1.7,0.7,1.9,1.4s-0.7,1.4-1.4,1.4l2.9,2.5c0.1,0.6-0.3,0.2,0.1,0.1
		c0.2-0.1,0.4-0.2,0.6-0.3c0.4-0.1,0.8-0.2,1.3-0.2c1.4-0.1,2.8,0.1,4.1,0.5c2.6,0.7,4.9,2.3,6.6,4.4c0.7,0.9,1.9,1.1,2.8,0.4
		c0.1-0.1,0.1-0.1,0.2-0.2c0.9-1,0.3-2.5-0.4-3.4c-2.7-3.3-6.4-5.5-10.6-6.2c-3.3-0.6-9.5-0.3-8.9,4.5c0.1,1.5,1.4,2.6,2.9,2.5
		c2.6-0.2,4.2-2.9,4.1-5.3c-0.3-2.8-2.1-5.2-4.6-6.3c-2.4-1.1-5.1-1.1-7.7-1.1c-2.6,0-5.2,0.2-7.8,0.6c-2.6,0.5-5.2,1.3-7.6,2.4
		c-2.2,1.1-5.2,2.7-4.9,5.6c0.4,2.6,2.7,4.4,5.3,4c0.5-0.1,0.9-0.2,1.3-0.4c2.2-1,4.1-2.6,5.4-4.7c1.6-2.6,2.9-5.4,3.8-8.4
		c0.3-0.8,1.9-6.7,3.6-5.5l-0.5-4.1c-5,3.7-11.1,5.6-17.3,5.6C93.6,364.9,94.6,369.7,97.2,369.7L97.2,369.7z"></path><path class="st0" d="M132.1,366.8c-0.1,0.1-0.2,0.1-0.3,0.2l0,0c0,0,0,0.1-0.1,0.1c-0.1,0.1-0.1,0.3-0.1,0.4c0,0,0,0.1,0,0.1
		c0,0.1,0.1,0.2,0.1,0.3c0,0.1,0.1,0.1,0.1,0.1c0.1,0.1,0.2,0.2,0.3,0.2l0,0c0.3,0.2,0.6,0.3,1,0.4c0.4,0.1,0.9,0.1,1.3,0.1
		c0.5,0,0.9,0,1.4-0.1c0.3-0.1,0.7-0.2,1-0.3l0,0c0.1-0.1,0.2-0.2,0.3-0.2c0,0,0.1-0.1,0.1-0.1c0.1-0.1,0.1-0.2,0.1-0.3
		c0,0,0-0.1,0-0.1c0-0.1-0.1-0.2-0.1-0.3c0,0,0-0.1-0.1-0.1c-0.1-0.1-0.3-0.2-0.4-0.3c-0.2-0.1-0.5-0.2-0.7-0.2
		c-0.3-0.1-0.6-0.1-0.9-0.1c-0.3,0-0.7,0-1,0l-0.6,0.1c-0.3,0.1-0.6,0.2-0.9,0.3l-0.2,0.2c-0.1,0.1-0.1,0.3,0,0.5c0,0,0,0.1,0.1,0.1
		l-0.1-0.2c0,0.1,0,0.2,0,0.3l0.1-0.2c0,0.1-0.1,0.1-0.1,0.2l0.2-0.2l-0.1,0l0.4-0.2l0,0l0.5-0.1l0,0l0.6-0.1l0,0h0.7l0,0h0.7l0,0
		l0.6,0.1l0,0l0.5,0.1l0,0l0.4,0.2h-0.1l0.2,0.2c0,0-0.1-0.1-0.1-0.2l0.1,0.2c0-0.1,0-0.2,0-0.3l-0.1,0.2c0-0.1,0-0.1,0.1-0.1
		l-0.2,0.2l0,0c0.1-0.1,0.3-0.2,0.3-0.3c0.1-0.1,0.1-0.3,0-0.4c-0.1-0.1-0.3-0.3-0.4-0.3c-0.2-0.1-0.5-0.2-0.7-0.2l-0.6-0.1
		c-0.4,0-0.9,0-1.3,0l-0.6,0.1c-0.3,0.1-0.6,0.2-0.9,0.3L132.1,366.8z"></path></g><g id="pencil"><g id="pencil-2"><path class="st1" d="M451.3,263.8c0,0,9.8-10.4,2.3-18.6l-113.6-39.7c0,0-5.6,13.4-2.1,17.7S451.3,263.8,451.3,263.8z"></path><path class="st2" d="M453.2,265.1c4.2-4.5,7.2-11.3,4.7-17.3c-0.7-1.8-2-3.8-3.8-4.4c-0.7-0.3-1.5-0.5-2.2-0.8l-23.5-8.2
			l-36.1-12.6l-34-11.9c-5.7-2-11.4-4.1-17.2-6l-0.3-0.1c-1-0.3-2.8-0.4-3.2,0.8c-0.8,2-1.5,4.1-2.1,6.2c-0.9,3.2-1.8,6.8-1.2,10.1
			s2.9,4.5,5.7,5.8c7.8,3.6,16,6.4,24,9.3c11.9,4.3,23.8,8.4,35.8,12.5c11.1,3.8,22.2,7.6,33.4,11.3c5.6,1.9,11.2,3.8,16.9,5.6
			l0.2,0.1c1.1,0.4,2.6,0.3,3.2-0.8c0.4-1-0.2-2.2-1.2-2.6c0,0-0.1,0-0.1,0c-4.5-1.5-9-3-13.5-4.5c-10.5-3.5-20.9-7-31.3-10.6
			c-12-4.1-23.9-8.2-35.8-12.4c-9-3.2-18-6.4-26.8-10c-1.2-0.5-2.5-1-3.6-1.6c-0.2-0.1-0.5-0.2-0.7-0.3s0.6,0.4,0.2,0.1l-0.3-0.2
			c-0.3-0.1-0.5-0.4-0.8-0.5s0.4,0.3,0.3,0.3l-0.1-0.1c0,0-0.2-0.5,0.1,0.1c0-0.1-0.1-0.2-0.2-0.3c-0.1-0.2-0.2-0.5-0.3-0.8
			c-0.3-1.4-0.3-2.9-0.1-4.4c0.2-1.7,0.6-3.4,1.1-5c0.4-1.3,0.9-2.9,1.2-3.8c0.2-0.6,0.4-1.1,0.6-1.6l-3.3,0.8l11.3,3.9l27.1,9.5
			l32.9,11.5l28.4,9.9l9.4,3.3c1.5,0.5,3,1.2,4.5,1.6l0.2,0.1l-1-0.7c2.8,3.1,2.8,7.1,1.2,10.8c-0.6,1.4-1.4,2.8-2.4,4.1l-0.5,0.7
			c0.3-0.4-0.1,0.1-0.2,0.3l-0.4,0.4C447.3,264.6,451.6,266.9,453.2,265.1z"></path><path class="st2" d="M321.2,211.6l16.6,11.6c0,0,10.9-9,2.1-17.7c0,0-11.3,1-18,2.4c-1.1,0.2-1.8,1.3-1.5,2.5
			C320.5,210.9,320.8,211.3,321.2,211.6z"></path><path class="st2" d="M319.3,212.6l14.5,10.1l2.1,1.4c1.1,0.9,2.8,1,3.9,0.1c4-3.4,7.2-9.2,5.5-14.4c-0.3-1-0.8-1.9-1.3-2.7
			c-0.8-1.2-1.9-2.8-3.3-3.2c-1-0.2-2-0.2-3,0c-3.6,0.4-7.3,0.8-10.9,1.3c-1.2,0.2-2.4,0.4-3.6,0.6c-1.2,0.1-2.4,0.4-3.5,0.9
			c-1.7,0.9-2.3,3-1.4,4.7C318.6,211.9,318.9,212.3,319.3,212.6c1,0.8,2.4,0.9,3.6,0.4c0.7-0.3,1-1.1,0.7-1.8
			c-0.1-0.2-0.3-0.4-0.5-0.6c-0.2-0.2-0.2-0.2-0.1-0.1c-0.1-0.2-0.1-0.2-0.1-0.1c0-0.1-0.1-0.5-0.1-0.3c0-0.3,0.1-0.5,0.2-0.7
			c-0.1,0.1-0.5,0.2,0,0l0.8-0.2c0.5-0.1,1-0.2,1.5-0.3l0.5-0.1c-0.1,0-0.1,0,0,0l0.9-0.1l1.7-0.2c1.2-0.2,2.3-0.3,3.5-0.5
			c2.8-0.4,5.6-0.7,8.5-0.9l-2.4-0.7c3.1,2.7,3.8,7.2,1.7,10.6c-0.4,0.7-0.8,1.5-1.3,2.1c-0.1,0.1-0.2,0.3-0.3,0.4s-0.1,0.2,0,0
			l-0.2,0.2c-0.2,0.2-0.4,0.5-0.6,0.7c-0.5,0.5-0.9,1-1.5,1.4l3.9,0.1L325.2,212l-2.1-1.4c-1-0.8-2.4-0.9-3.5-0.4
			c-0.7,0.2-1.1,1-0.9,1.8C318.9,212.2,319.1,212.4,319.3,212.6z"></path></g><path class="st2" d="M455.8,252.8l-10.8-3.7l-26-8.9l-31.5-10.7l-27.2-9.3c-4.4-1.5-8.8-3.1-13.2-4.5l-0.2-0.1
		c-0.7-0.2-2.2-0.5-2.3,0.6s1.5,2,2.3,2.2l10.9,3.7l26.1,9l31.4,10.7l27.2,9.3c4.4,1.5,8.8,3.1,13.2,4.5l0.2,0.1
		c0.7,0.2,2.2,0.5,2.3-0.6S456.6,253,455.8,252.8L455.8,252.8z"></path></g></svg>