<svg transform="scale(2)" version="1.1" id="Layer_1" xmlns="http://www.w3.org/2000/svg" xmlns:xlink="http://www.w3.org/1999/xlink" x="0px" y="0px" viewBox="0 0 500 500" xml:space="preserve" class="show_show__wrapper__graphic__5Waiy "><title>React</title><style type="text/css">
	.st0{fill:#FFBE30;}
	.st1{fill:url(#SVGID_1_);}
	.st2{fill:url(#SVGID_00000014609961462841138180000012427681811442502295_);}
	.st3{fill:url(#SVGID_00000114041445462989813690000007917434776290497457_);}
	.st4{fill:#68E1FD;}
	.st5{fill:#053855;}
	.st6{fill:#FF9F9F;}
	.st7{fill:#FFFFFF;}
	.st8{fill:#EF986C;}
	.st9{fill:#CE4823;}
	.st10{fill:#F7931E;}
	.st11{opacity:0.2;fill:#053855;enable-background:new    ;}
	.st12{fill:#9494dc;}
	.st13{fill:#F2F2F2;}
	.st14{opacity:0.3;fill:#053855;enable-background:new    ;}
</style><g id="background"><path class="st0" d="M244.6,419.1l-230-135.9C7.3,279.1,1,272.4,8.1,268l230.8-133c3.5-2.1,8.7-3.6,12.2-1.5l241.4,140.1
		c7.3,4.2,8.6,16.1,1.3,20.4l-219,125C265.5,424.4,254,424.5,244.6,419.1z"></path><linearGradient id="SVGID_1_" gradientUnits="userSpaceOnUse" x1="162.6433" y1="280.3076" x2="207.5333" y2="152.1577" gradientTransform="matrix(1 0 0 -1 0 502)"><stop offset="0" style="stop-color: rgb(5, 56, 85);"></stop><stop offset="1" style="stop-color: rgb(5, 56, 85); stop-opacity: 0;"></stop></linearGradient><path class="st1" d="M216.8,342.5c-4.9,1.5-9.7,3-14.7,4c-3,0.5-6.1,0.9-9.2,1.1l-5.2-3.5l-34.2-24.8l30.3-16l60.3,27.7
		C236.1,336.7,226.2,339.6,216.8,342.5z"></path><linearGradient id="SVGID_00000076596409419967732410000007826609567079074746_" gradientUnits="userSpaceOnUse" x1="241.5564" y1="268.1323" x2="292.6964" y2="124.7023" gradientTransform="matrix(1 0 0 -1 0 502)"><stop offset="0" style="stop-color: rgb(5, 56, 85);"></stop><stop offset="1" style="stop-color: rgb(5, 56, 85); stop-opacity: 0;"></stop></linearGradient><path d="M303.6,375c-4.9,1.5-9.7,3-14.7,4
		c-3.1,0.5-6.1,0.9-9.2,1l-5.2-3.5l-34.2-24.8l30.3-16l60.3,27.7C322.9,369.2,313,372.1,303.6,375z" style="fill: url(&quot;#SVGID_00000076596409419967732410000007826609567079074746_&quot;);"></path><linearGradient id="SVGID_00000095332859940789128730000018153626880377480627_" gradientUnits="userSpaceOnUse" x1="299.1116" y1="258.0912" x2="361.7816" y2="168.3011" gradientTransform="matrix(1 0 0 -1 0 502)"><stop offset="0" style="stop-color: rgb(5, 56, 85);"></stop><stop offset="1" style="stop-color: rgb(5, 56, 85); stop-opacity: 0;"></stop></linearGradient><path d="M369.6,336.7c-4.9,1.5-9.7,3-14.7,4
		c-3,0.5-6.1,0.9-9.2,1.1l-5.2-3.5l-34.2-24.8l30.3-16l60.3,27.6C388.9,330.9,379,333.8,369.6,336.7z" style="fill: url(&quot;#SVGID_00000095332859940789128730000018153626880377480627_&quot;);"></path></g><g id="screen"><polygon class="st4" points="112.6,158.4 112.6,281.4 262,193.4 262,68.8 	"></polygon><path class="st0" d="M186.2,140.9l33.9-19.8c0.7-0.4,0.9-1.3,0.5-2c-0.4-0.7-1.3-0.9-2-0.5l0,0l-33.9,19.8c-0.7,0.4-0.9,1.3-0.5,2
		S185.6,141.3,186.2,140.9z"></path><path class="st5" d="M186.2,148l33.9-19.8c0.7-0.4,0.9-1.3,0.4-2c-0.4-0.6-1.2-0.8-1.9-0.5l-33.9,19.8c-0.7,0.4-0.9,1.3-0.5,2
		S185.5,148.4,186.2,148L186.2,148z"></path><path class="st6" d="M186.2,155.1l33.9-19.8c0.7-0.4,0.9-1.3,0.4-2c-0.4-0.6-1.2-0.8-1.9-0.5l-33.9,19.8c-0.7,0.4-0.8,1.3-0.4,2
		C184.8,155.2,185.5,155.4,186.2,155.1z"></path><path class="st7" d="M186.2,162.2l33.9-19.8c0.7-0.4,0.9-1.3,0.4-2c-0.4-0.6-1.2-0.8-1.9-0.5l-33.9,19.8c-0.7,0.4-0.8,1.3-0.4,2
		C184.8,162.3,185.5,162.5,186.2,162.2z"></path><ellipse class="st7" transform="matrix(0.3295 -0.9441 0.9441 0.3295 45.7833 307.1715)" cx="239.2" cy="121.4" rx="16.7" ry="10.4"></ellipse><path class="st5" d="M239.2,121.4v-18.2c0,0,9.6-3.2,12.4,10.4L239.2,121.4z"></path><path class="st6" d="M239.2,121.4l8.9,8.4c0,0,4.1-3.2,3.5-16.1L239.2,121.4z"></path><path class="st7" d="M247.6,144.2v43.6c0,1.1,0.9,1.9,1.9,1.9c1.1,0,1.9-0.9,1.9-1.9v-43.6c0-1.1-0.9-1.9-1.9-1.9
		C248.5,142.3,247.6,143.2,247.6,144.2z"></path><path class="st7" d="M239.9,158.1v34.4c0,2.5,3.8,2.5,3.8,0v-34.4c0-1.1-0.9-1.9-1.9-1.9C240.8,156.1,239.9,157,239.9,158.1z"></path><path class="st7" d="M231.3,175.5v21.8c0,2.5,3.8,2.5,3.8,0v-21.8c0-1.1-0.9-1.9-1.9-1.9C232.2,173.6,231.3,174.4,231.3,175.5z"></path><path class="st7" d="M123.7,254.8c-0.6-2.2-0.3-38.8,9.7-55.2c2.6-4.4,5.8-7,9.4-7.8c10.7-2.4,14.5,12.8,17.3,23.9
		c1.2,4.8,2.6,10.3,3.9,10.4c0.2,0,1.2-0.2,2.8-3.8c3.8-8.3,3.2-16.6,2.8-23.2c-0.6-8.8-1.1-15.7,9-16.5
		c9.8-0.8,12.3,11.5,14.1,20.4c0.9,4.4,1.8,9,3.3,9.4c0.7,0.2,1.7-0.7,2.5-1.4c4.2-4.5,5.6-12.1,6.9-18.8c1.6-8.4,3.2-16.3,9.7-16.3
		l0,0c2.1,0,4,0.9,5.4,2.4c5.4,6,3.8,21.4,3.7,22.1l-1.3-0.1c0-0.2,1.6-15.5-3.4-21.1c-1.1-1.3-2.7-2-4.4-2l0,0
		c-5.5,0-6.9,7.1-8.5,15.2c-1.3,6.9-2.9,14.6-7.3,19.4c-1.4,1.5-2.6,2.1-3.8,1.8c-2.3-0.6-3.1-4.7-4.2-10.4c-1.8-8.9-4-20-12.7-19.4
		s-8.4,6.4-7.8,15.1c0.5,6.8,1.1,15.3-2.9,23.9c-1.5,3.3-2.8,4.7-4.1,4.5c-2.1-0.2-3.2-4-5-11.4c-2.7-10.6-6.3-25.1-15.8-22.9
		c-3.2,0.7-6.1,3.1-8.6,7.2c-9.8,16.1-10.1,52-9.5,54.2L123.7,254.8z"></path></g><g id="character_3"><path class="st8" d="M335.2,283.2c3.6-2.5,7.9-3.9,12.4-2.9c4.9,1.1,9.1,4.1,14.1,4.9c0.8,0.1,3.9-0.1,4.4,0.4
		c13.9,13.1-24.9,11.7-24.9,11.7c-3.8-3.1-7.3-6.1-11-9.2C331.3,285.5,333.2,284.5,335.2,283.2z"></path><path class="st9" d="M353.4,302.2l1.4,39.6c0,1.5-2.3,1.5-2.3,0c-0.5-13.2-0.9-26.4-1.4-39.6C351,300.7,353.3,300.7,353.4,302.2z"></path><path class="st9" d="M324.3,323.4c7.1-6.9,13.8-14.1,20.2-21.6c1-1.1,2.6,0.5,1.6,1.6c-6.4,7.5-13.2,14.7-20.2,21.6
		C324.9,326.1,323.3,324.4,324.3,323.4z"></path><path class="st9" d="M361.5,298.5c5.5,10.3,10.6,20.8,15.5,31.5c0.6,1.4-1.4,2.5-2,1.2c-4.8-10.7-10-21.2-15.5-31.5
		C358.8,298.4,360.8,297.2,361.5,298.5z"></path><path class="st4" d="M330.8,286.9c2.3,3.2,5.6,5.6,9.4,6.8c5.3,1.6,13,0.8,15.8-4.6c5.1-9.9,0.3-22.3,5.7-32c1.3-2.5,3.5-4.3,6.2-5
		c3.5-0.8,5.8,1.8,7.1,4.8c2.2,5.4,2.2,12.2,2.1,17.9c0,4.7-0.3,9.3-1,13.9c0,0-3.2,19.3-28.5,14.1c-4.4-0.8-8.6-2.3-12.4-4.5
		c-2-1.1-3.7-2.6-5.1-4.4C328.5,291.8,329.5,289.1,330.8,286.9z"></path><polyline class="st10" points="353.2,231.9 353.9,236.3 361,236.3 362.1,231.3 	"></polyline><path class="st6" d="M313.4,305.5c0,0,0.2,3.5-0.9,4.5s-7-1.8-8.5-0.8s5.9,8,8.5,8.4s5.1-3.4,5.1-3.4v5.3l3,1.7l2.2-1.3l-0.6-14.5
		L313.4,305.5z"></path><path class="st5" d="M323.5,308.1c-3.1,2.7-6.5,2.6-10.4,0.9c-2.8-4.9-6.1-35,0.9-39.7c7.5-5.1,19.3-4.2,21.2-3.7l28.8,4.7
		c2.2,3.8-3.6,23.5-16.4,24s-21-4.3-21-4.3L323.5,308.1z"></path><path class="st10" d="M334.7,225.7c1.4,0.6,2.5,1.6,3.2,2.9l0,0.1c2,1.7,2.3,4.7,4.5,6.2c0,0.1,2,1.5,2,1.5s-0.2-2.8-0.2-2.8l0,0
		c0.7,1.9,1.4,3.8,2,5.8c-0.1,0.1-0.2,0.1-0.3,0.1l0.2,0.1l0.2,0.1c0.1,0.2,0.2,0.4,0.4,0.4c0.2,0.8-0.2,1.7-1,1.9
		c-0.4,0.1-0.8,0.1-1.1-0.1l-6.5-3.1c-0.9-0.2-1.7-0.4-2.5-0.8c0-0.7-0.1-1.4-0.2-2c-1-1.6-1.2-3.6-0.4-5.4c0,0-0.1-0.1-0.1-0.1
		v-0.1c-1.1-0.8-1.8-1.9-2-3.2C332.7,226.4,333.6,225.2,334.7,225.7z"></path><path class="st4" d="M343,231.9c0,0-7.4,4.6-8.2,8.4c0,0,5.2,11.3,4.9,11.8c-5.9,7.7,11.8-4.9,11.8-4.9S347.8,236.5,343,231.9z"></path><path class="st6" d="M343,231.9c0,0-7.4,4.6-8.2,8.4c0,0,5.2,11.3,4.9,11.8c-5.9,7.7,11.8-4.9,11.8-4.9S347.8,236.5,343,231.9z"></path><path class="st6" d="M365.9,239.4c-2.8-7.1-8.2-4.8-9.3-4.8c-10.6,0-15,6.3-17.8,10.4c0,0,0,0.1,0,0.1c-1.4,4.8-2.2,9.7-2.4,14.7
		c-0.2,2.4-0.2,4.8-0.5,7.2c-0.3,1.8-1.1,4.1,0,5.8c0.6,0.9,2.1,1.2,3,1.5c1.9,0.8,3.9,1.3,5.9,1.7c3.2,0.6,6.4,0.6,9.6-0.1
		c3.3-0.7,8-2.4,9.8-5.7C365.9,266.8,368.8,246.4,365.9,239.4z"></path><path class="st10" d="M347.4,218.6c0,0.2-1.1,11.3,1.4,13.8s9.1,1.4,10.7-1.2s3.7-6.2,1.9-10.4S347.7,215.8,347.4,218.6z"></path><path class="st5" d="M354.4,222.6c1.9,2.5-0.5,5.9,0,8.6c1.1,6.2,8.8,3.4,11.4,0.3c0.9-1.1,1.7-2.3,2.4-3.5c0.8-1.5,1-3.3,0.7-5
		c-0.2-1-0.5-1.9-0.9-2.8c-2.5-6-9.9-8.8-15.9-7.1c-5.1,1.4-5.1,5.6-5,6.8C349.3,220.6,352.8,220.5,354.4,222.6z"></path><path class="st10" d="M352.8,227.1c-0.1-0.4-0.1-0.8,0.2-1.1c0.8-0.9,1.8-1.6,3-1.9c1.1-0.3,2.2,0.3,2.6,1.4c0.8,2.5-3.3,3.3-5,3.5
		c-0.6,0-1.1-0.5-1.1-1.1C352.5,227.6,352.6,227.4,352.8,227.1z"></path><circle class="st5" cx="369.8" cy="216.8" r="5"></circle><path class="st11" d="M347.3,254.6c0,0-1.8,19.4-3.4,20.5s-9.1-1.4-9.1-1.4S343.6,268.3,347.3,254.6z"></path><path class="st10" d="M323.3,265.1c0,0-3.4-1.1-5,0s-4.4,4-3.8,5.1s2.9,0,2.9,0c0.8-0.1,1.6-0.1,2.4,0c0.5,0.3,4.5,2.1,5.8,1.3
		S326.3,266.2,323.3,265.1z"></path><path class="st6" d="M337.6,249.9c0,0-2.8,8.3-5.4,9.6c-1.5,0.7-5.1,1.4-8,1.9c-1.1,3.4-1.5,7-1.2,10.6c6.7,1.7,14.8,2.1,17.6-0.3
		c4.1-3.4,7-19.1,7-19.1L337.6,249.9z"></path><path class="st4" d="M329.7,289.2c0.3-0.8,1.3-1.2,2.1-0.9c0.2,0.1,0.4,0.2,0.6,0.4c2.1,2.3,4.8,4,7.8,5c5.3,1.6,13,0.8,15.8-4.6
		c5-9.9,0.4-22.2,5.6-31.9c0.9-1.7,2.3-3.2,3.9-4.2c4.7-2.7,7.9,0.3,9.4,3.9c2.2,5.4,2.2,12.2,2.1,17.9c0,4.7-0.3,9.3-1,13.9
		c0,0-3.2,19.3-28.5,14.1c-4.4-0.8-8.6-2.3-12.4-4.5c-2-1.1-3.7-2.6-5.1-4.4C329.1,292.5,329,290.7,329.7,289.2z"></path></g><g id="character_2"><path class="st8" d="M269.1,321.6c3.6-2.5,7.9-3.9,12.4-2.9c4.9,1.1,9.1,4.1,14.1,4.9c0.8,0.1,3.9-0.1,4.4,0.4
		c13.9,13.1-24.9,11.7-24.9,11.7c-3.8-3.1-7.3-6.1-11-9.2C265.3,323.9,267.2,322.9,269.1,321.6z"></path><path class="st9" d="M287.4,340.6l1.4,39.6c0,1.5-2.3,1.5-2.3,0l-1.4-39.6C285,339.1,287.3,339.1,287.4,340.6z"></path><path class="st9" d="M258.3,361.8c7-6.9,13.8-14.1,20.2-21.6c1-1.1,2.6,0.5,1.6,1.6c-6.4,7.5-13.2,14.7-20.2,21.6
		C258.9,364.5,257.3,362.8,258.3,361.8z"></path><path class="st9" d="M295.5,336.9c5.5,10.3,10.6,20.8,15.5,31.5c0.6,1.4-1.4,2.5-2,1.2c-4.8-10.7-10-21.2-15.5-31.5
		C292.8,336.8,294.8,335.6,295.5,336.9z"></path><path class="st4" d="M264.8,325.3c2.3,3.2,5.6,5.6,9.4,6.8c5.3,1.6,13,0.8,15.8-4.6c5.1-9.9,0.3-22.3,5.7-32c1.3-2.5,3.5-4.3,6.2-5
		c3.5-0.8,5.8,1.8,7.1,4.8c2.2,5.4,2.2,12.2,2.1,17.9c0,4.7-0.3,9.3-1,13.9c0,0-3.2,19.4-28.5,14.1c-4.4-0.8-8.6-2.3-12.4-4.5
		c-2-1.1-3.7-2.6-5.1-4.4C262.5,330.1,263.5,327.5,264.8,325.3z"></path><path class="st12" d="M247.4,343.8c0,0,0.2,3.5-0.9,4.5s-7-1.8-8.6-0.8s5.9,8,8.6,8.4s5.1-3.4,5.1-3.4v5.4l3,1.7l2.2-1.3l-0.6-14.5
		L247.4,343.8z"></path><path class="st5" d="M257.5,346.4c-3.1,2.7-6.5,2.6-10.4,0.9c-2.8-4.9-6.1-34.9,0.9-39.7c7.5-5.1,19.3-4.2,21.3-3.7l28.8,4.7
		c2.2,3.8-3.6,23.5-16.5,24s-21-4.3-21-4.3L257.5,346.4z"></path><path class="st10" d="M268.7,264.1c1.4,0.6,2.5,1.7,3.2,3c0,0,0,0.1,0,0.1c2,1.6,2.4,4.7,4.5,6.2c0,0.1,2,1.5,2,1.5
		s-0.2-2.8-0.2-2.8l0,0c0.7,1.9,1.4,3.8,2,5.8c-0.1,0.1-0.2,0.1-0.3,0.1l0.2,0.1l0.2,0.1c0,0.2,0.2,0.4,0.4,0.4
		c0.2,0.8-0.2,1.7-1,1.9c-0.4,0.1-0.8,0.1-1.1-0.1l-6.5-3.2c-0.9-0.2-1.7-0.4-2.6-0.7c0-0.7-0.1-1.4-0.2-2c-1-1.6-1.2-3.6-0.4-5.4
		l-0.1-0.1V269c-1.1-0.8-1.8-1.9-2-3.2C266.7,264.8,267.6,263.6,268.7,264.1z"></path><path class="st4" d="M276.9,270.2c0,0-7.4,4.6-8.2,8.5c0,0,5.2,11.3,4.9,11.8c-5.9,7.7,11.8-4.9,11.8-4.9S281.8,274.8,276.9,270.2z
		"></path><path class="st4" d="M260,273c-0.6,5.1,5.9,12.3,8.7,13.7c3.8,1.9,5.3-13.8,21.9-13.8c1.1,0,6.5-2.3,9.3,4.8s0,27.4-1.9,31
		c-1.7,3.1-12.8,10.6-28.6,2.6l-0.2-7.3c0,0-9.4-0.2-14.3-7.1c-4.6-6.4-7.4-16-6.9-20.8C251.7,274.5,256.4,271.8,260,273z"></path><path class="st12" d="M276.9,270.2c0,0-7.4,4.6-8.2,8.5c0,0,5.2,11.3,4.9,11.8c-5.9,7.7,11.8-4.9,11.8-4.9S281.8,274.8,276.9,270.2
		z"></path><path class="st10" d="M248.2,271.9c0.1,0.1,0.1,0.1,0.2,0.1c-0.1,1.5-0.1,3.1-0.1,4.7c0,0.8,1.2,0.7,1.2-0.1v-0.2
		c0.3,0.1,0.7-0.1,0.8-0.5v-0.1c0.2,0.1,0.4,0.1,0.6-0.1c0.2,0,0.3-0.1,0.4-0.2c0.1,0.2,0.3,0.3,0.5,0.3v0.5c0,0.7,1.1,0.8,1.2,0.1
		v-0.5c0.2,0.5,1.1,0.5,1.2-0.1l0.1-0.7c0.1,0,0.1-0.1,0.2-0.1v0.1c0,0.3,0.3,0.6,0.7,0.5c0.3,0,0.5-0.2,0.5-0.5l0.1-0.3
		c0.3,0.2,0.6,0.1,0.8-0.2c0,0,0,0,0,0c0.8-1.6,1.5-3.3,2-5.1c0.4-1.2,0-2.6-1.1-3.4c-0.1-0.1-0.3-0.2-0.4-0.2l0,0
		c0.1-0.8,0.2-1.7,0.3-2.5c0.1-0.6,0.2-1.2,0.3-1.8c0.1-0.4,0.1-0.9-0.1-1.3c-0.1-0.6-0.5-1.1-1.2-1c-1.1,0.2-1.5,1.8-1.8,2.7
		c-0.3,0.9-0.5,1.8-0.7,2.7c-0.1-0.2-0.3-0.3-0.5-0.4c-0.6-0.2-1.4,0-1.8,0.5l-0.1,0.1c-0.1-0.1-0.3-0.3-0.5-0.4
		c-0.6-0.3-1.3-0.3-1.8,0.1c-0.3,0.3-0.5,0.6-0.6,1c-0.8-0.3-1.7,0.1-2,0.9c0,0.1-0.1,0.1-0.1,0.2
		C246,268.6,247.1,270.6,248.2,271.9z"></path><path class="st10" d="M281.8,254.2c0,0.2-1,10.6,1.3,12.9s8.5,1.3,10-1.2s3.4-5.8,1.8-9.7S282.1,251.7,281.8,254.2z"></path><path class="st12" d="M260,273c-0.6,5.1,5.9,12.3,8.7,13.7c3.8,1.9,5.3-13.8,21.9-13.8c1.1,0,6.5-2.3,9.3,4.8s0,27.4-1.9,31
		c-1.7,3.1-12.8,10.6-28.6,2.6l-0.2-7.3c0,0-9.4-0.2-14.3-7.1c-4.6-6.4-7.4-16-6.9-20.8C251.7,274.5,256.4,271.8,260,273z"></path><path class="st7" d="M261.3,302.1c8.9,3.2,18.8-0.1,24-8c0.3-0.5,1.2,0,0.8,0.5c-5.4,8.2-15.8,11.7-25.1,8.4
		C260.5,302.9,260.8,302,261.3,302.1z"></path><path class="st7" d="M270.7,285c0.8-2,2.1-3.7,3.7-5.2c1.8-1.6,4-2.7,5.9-4.2c0.4-0.3,0.9,0.2,0.5,0.5c-1.8,1.5-3.9,2.5-5.6,4
		c-1.7,1.5-3,3.3-3.9,5.3C271.1,285.8,270.5,285.4,270.7,285z"></path><path class="st5" d="M281.6,255.7l3.3,1.7c0,0-2.6,9.7-3.3,12.3s2.3,6.1,12.3,6.4s9.5-14.9,7.2-20.5s-9.2-8.2-14.9-6.7
		C283.1,249.6,281,252.6,281.6,255.7z"></path><path class="st4" d="M263.7,327.5c0.3-0.8,1.3-1.2,2.1-0.9c0.2,0.1,0.4,0.2,0.6,0.4c2.1,2.3,4.8,4.1,7.9,5c5.3,1.6,13,0.8,15.8-4.6
		c5-9.9,0.3-22.2,5.6-31.9c0.9-1.7,2.3-3.2,3.9-4.2c4.7-2.7,7.9,0.3,9.4,3.9c2.2,5.4,2.2,12.2,2.1,17.9c0,4.7-0.3,9.3-1,13.9
		c0,0-3.2,19.4-28.5,14.1c-4.4-0.8-8.6-2.3-12.4-4.5c-2-1.1-3.7-2.6-5.1-4.4C263.1,330.9,263,329.1,263.7,327.5z"></path></g><g id="character_1"><path class="st8" d="M210.1,177.7c0,0,4.3-6.2,4.9-7.8s-2.5-3.8-5.5-4s-3.2,3.2-3.2,3.2c-0.8-0.2-1.6,0.1-1.9,0.9
		c-0.7,1.3,1.1,5.2,1.3,5.3l-3.4,4.2l5.7,2.8L210.1,177.7z"></path><path class="st9" d="M172.1,310.8c0-2.4-0.1-4.9-0.1-7.3l10.7,2.1c0,0-0.5,4.1,0.6,5.6s10.1,5.8,11.2,7.2s1.4,4-4.9,3.8
		s-11.3-4.6-12.6-4.9s-4.2-0.7-5.1-1.4C171.8,314.2,172.1,312.5,172.1,310.8z"></path><path class="st9" d="M153.8,313.9c0-2.4-0.1-4.9-0.1-7.3l10.7,2.1c0,0-0.5,4.1,0.6,5.6s10.1,5.8,11.2,7.2s1.4,4-4.9,3.7
		s-11.3-4.6-12.6-4.9s-4.2-0.7-5.1-1.4C153.6,317.3,153.9,315.6,153.8,313.9z"></path><path class="st5" d="M158.8,209.4l5.4,1c-0.1-0.7-0.1-1.3-0.1-2c1.1-0.1,2.3-0.2,3.4-0.3c3.2-0.4,5.8-3.6,8.8-4.8
		c1.3,6.1,1.6,19.6,3.1,29.4c1.9,12.4,7.7,69.7,6.1,74.5c0,0,0.1,1.7-9.9,2.3c0,0-2.4,1.4-5.8-3.5l-3.5-61.1l1.6,65.5
		c-3,2.7-7.5,4-15.8-0.1l-4-83L158.8,209.4z"></path><path class="st9" d="M152.7,256.3c0.6-4.1-1.8-8-5.6-9.5c-6.7-2.7-6.6,8.8-6.6,8.8l-3.4-1.3c0,0-2-12.1,9.8-11.3s10,14.5,10,14.5
		L152.7,256.3z"></path><path class="st8" d="M143.5,239.5c0-0.1,0-0.3,0.1-0.4c0-0.1,0-0.3,0-0.4l1.5-10.2c0-0.3,0.2-0.6,0.6-0.7c0-0.6,0.1-1.2,0.3-1.8
		c0.8-0.8,2-1,2.9-0.5c0.5-0.5,1.6-0.6,1.7,0.3c0.2,1.1,0.3,2.2,0.5,3.3l0,0c0-0.1,0.1-0.2,0.1-0.4c0.1-0.2,0.2-0.4,0.4-0.6
		c0.2-0.8,0.4-1.7,0.6-2.5c0.3-1.2,2.2-0.7,1.9,0.5c-0.1,0.4-0.2,0.8-0.3,1.2c0.7-0.2,1.6,0.3,1.2,1.1c-1.2,3-1.9,6.1-2.2,9.3
		c0.5,1.9,0.9,3.9,1.2,5.9c0.2,1.2,0.5,2.9-1.1,3.3c-0.5,0.1-1.1-0.2-1.2-0.7c-0.3-1.3-0.5-2.7-0.7-4c-0.1,0.5-0.3,1-0.5,1.5
		c-0.3,1-0.7,2.1-1.1,3.1c-0.3,0.5-0.6,1-1.3,1c-0.4,0-0.8-0.2-1-0.5c-0.2,0.6-0.9,0.9-1.5,0.7c-0.9-0.3-1.1-1.2-1.1-2.1
		C142,244.8,143,241.6,143.5,239.5z"></path><path class="st9" d="M143.8,223.1c0.6-6.6,1.7-13.2,3.1-19.7c1.1-5.2,2.3-13.8,4.2-18.8c1.5-3.9,5.3-5.2,9.6-5.9
		c4.4-0.8,8.8-1.1,13.2-1.1c0.2,0,0.4,0,0.5-0.1c0.3,0.1,0.7,0.1,1,0.2c1.3,0.3,2.6,4.2,3,5.3c0.7,2.2,1,4.4,1.2,6.6
		c0.5,6-0.5,11.7-1.1,17.6c-0.3,2.5,0.5,6.7-1.6,8.6c-1.8,1.6-4.9,2.3-7.2,2.6c-4.1,0.5-8.3,0.3-12.3-0.7l-2.6,17.2
		c-4.8,1.9-11.1-0.3-11.1-0.3S143.1,231.2,143.8,223.1z"></path><path class="st9" d="M162.9,264.6c0-2.2-1.1-4.2-2.9-5.3c-7.1-4.5-24.5-15.5-25.6-14.4c-1.4,1.3-4.3,26.1-3.2,27
		c0.8,0.6,18.4,9.5,27.1,13.9c1.6,0.8,3.5,0.2,4.3-1.4c0.2-0.5,0.4-1,0.3-1.5V264.6z"></path><path class="st13" d="M174.6,177.6c0,0,1.4,9-6.7,9s-8.6-7.3-8.6-7.3C164.2,178,169.4,177.4,174.6,177.6z"></path><path class="st9" d="M175.6,177.8c0,0,11.5,7.7,17.1,8.8c4.6,0.9,10.5-12.6,10.5-12.6l8,4.5c0,0-6.2,19.9-15.9,21.6
		s-19.7-7.4-19.7-7.4"></path><path class="st8" d="M163.7,175.5c0.1,0.2,0,2.9,0,2.9l3.7,0.8h3.8l0.7-2.8"></path><path class="st14" d="M163.7,175.5c0.1,0.2,0,2.9,0,2.9l3.7,0.8h3.8l0.7-2.8"></path><path class="st5" d="M163,176.6c0,0,2.3,2.3,4.4,2.5c1.8,0.1,3.9-2.1,4.5-2.8c0.1,2.2-0.3,4.3-1,6.4c-0.4,0.6-0.7,1-0.9,0.9
		c-0.8-0.3-2.3-2.5-2.3-2.5s-1.7,2.6-2.4,2.5s-3.1-4.2-3.1-4.2L163,176.6z"></path><path class="st5" d="M157.9,159.5c1-1.4,2.8-1.8,4.4-1.1c0-0.1,0.1-0.1,0.1-0.2c0.9-1,1.3-2.1,2.8-2.4c1.3-0.3,2.7-0.3,4,0.1
		c1.2,0.3,2.3,1.1,3,2.2c0.1-0.1,0.2-0.1,0.4-0.1c2.9,0.1,5.1,2.5,5.1,5.4c-0.1,2.4-2,5.1-4.5,5.3c-1.2,0.4-2.5,0.6-3.7,0.5
		c-0.8-0.1-1.4-0.8-1.4-1.6c0-0.3,0.1-0.6,0.3-0.8l-0.2-0.1l-0.1,0.1c-0.4,0.5-1.1,0.6-1.7,0.2l-0.2-0.1c-0.3-0.1-0.6-0.2-0.9-0.3
		c-0.1,0-0.2,0.1-0.3,0.1l0.1,0.4c0.2,0.6-0.1,1.3-0.6,1.6c-0.3,0.1-0.6,0.2-0.8,0.2c0.6,0.9,1.5,1.7,2.5,2.3
		c1.4,0.7,0.6,2.5-0.6,2.6c0.6,0.4,0.4,3.2-0.3,2.8c-3.6-2-6.1-5.3-7.1-9.3C157.5,165.3,156.6,161.1,157.9,159.5z"></path><path class="st8" d="M174.1,165.1c0.4-0.1,0.4,11.6-4.4,12.4c-6,1-8.3-6.2-8.3-6.2s-0.9-5.3,2.9-7.1S169.8,165.9,174.1,165.1z"></path><path class="st5" d="M174.1,165.1c0,0-4.8,0.9-7.3,0s1.1,7.3-0.8,7.3s-1.8-4.4-3.2-2.8s2.2,6.8,2.2,6.8s-5.1-2.6-6.3-7
		s4.5-8.6,9.9-8.2S174.1,165.1,174.1,165.1z"></path></g></svg>